<svg width="22" height="21" viewBox="0 0 22 21" fill="none" xmlns="http://www.w3.org/2000/svg">
<path d="M21.501 18.3725L12.4861 0.820776C12.2613 0.381973 11.8208 0.106567 11.3413 0.106567H11.34C10.8606 0.106567 10.4214 0.380641 10.1953 0.819443L1.14009 18.3712C0.924413 18.7924 0.936082 19.2974 1.16997 19.7024C1.40514 20.1088 1.82876 20.3586 2.28483 20.3586H20.3537C20.8111 20.3586 21.2333 20.1101 21.4685 19.7024C21.7037 19.296 21.7154 18.7911 21.501 18.3725ZM11.34 17.6583C10.6228 17.6583 10.0407 17.0534 10.0407 16.3082C10.0407 15.5629 10.6228 14.9581 11.34 14.9581C12.056 14.9581 12.6394 15.5629 12.6394 16.3082C12.6394 17.0534 12.0573 17.6583 11.34 17.6583ZM12.6407 12.2794C12.6407 13.026 12.0573 13.6295 11.3414 13.6295C10.6241 13.6295 10.042 13.026 10.042 12.2794V6.87882C10.042 6.13352 10.6242 5.5287 11.3414 5.5287C12.0573 5.5287 12.6407 6.13357 12.6407 6.87882V12.2794Z" fill="#FF0101"/>
</svg>
