<svg width="18" height="18" viewBox="0 0 18 18" fill="none" xmlns="http://www.w3.org/2000/svg">
<path d="M8.99946 9.53181C11.2283 9.53181 13.0353 7.41689 13.0353 4.80803C13.0353 1.19025 11.2284 0.0842896 8.99946 0.0842896C6.77047 0.0842896 4.96362 1.19025 4.96362 4.80803C4.96367 7.41689 6.77051 9.53181 8.99946 9.53181Z" fill="#434343"/>
<path d="M17.912 16.4846L15.8759 11.8978C15.7827 11.688 15.6191 11.5139 15.4155 11.4079L12.2555 9.76291C12.1859 9.7267 12.1015 9.73374 12.0388 9.78117C11.1451 10.4571 10.0943 10.8145 9.00005 10.8145C7.90566 10.8145 6.85491 10.4571 5.96117 9.78117C5.89835 9.73374 5.81397 9.7267 5.74429 9.76291L2.58456 11.4079C2.38083 11.5139 2.2174 11.6879 2.12418 11.8978L0.0880542 16.4846C-0.0523244 16.8008 -0.0235536 17.1626 0.16504 17.4526C0.353546 17.7426 0.672576 17.9157 1.01849 17.9157H16.9815C17.3274 17.9157 17.6465 17.7425 17.835 17.4526C18.0235 17.1626 18.0524 16.8007 17.912 16.4846Z" fill="#434343"/>
</svg>
