<svg width="17" height="18" viewBox="0 0 17 18" fill="none" xmlns="http://www.w3.org/2000/svg">
<path d="M15.4217 9.66776C14.7186 8.84739 13.6758 8.27724 12.2928 7.95688C13.262 7.51155 13.8479 7.21081 14.051 7.05464C14.5432 6.68741 14.9142 6.27716 15.1638 5.82411C15.4139 5.37089 15.5387 4.87092 15.5387 4.32412C15.5387 3.81636 15.4569 3.33982 15.2927 2.89449C15.1286 2.44907 14.8748 2.04285 14.531 1.6757C14.1795 1.30863 13.781 1.01159 13.3357 0.785025C12.9216 0.581976 12.5466 0.429658 12.2107 0.328113C11.4061 0.117142 10.6599 0.0116568 9.97252 0.0116568H9.10532C8.94911 0.0116568 8.79067 0.0096866 8.63056 0.00574629C8.47056 0.00205225 8.38658 0 8.37879 0C8.33983 0 8.28504 0.00205225 8.21453 0.00578733C8.14421 0.00972764 8.08938 0.0116978 8.05039 0.0116978L7.52296 0.0234777L3.07004 0.175795L0.0232724 0.246146L0.0701457 1.21871C0.72629 1.30474 1.17179 1.35567 1.40608 1.37119C1.8045 1.39462 2.07404 1.45336 2.2147 1.54698C2.30073 1.60958 2.34761 1.65641 2.3554 1.68764C2.43347 1.8595 2.47632 2.28526 2.48428 2.965C2.51548 4.12128 2.55074 5.69937 2.58969 7.69929L2.61312 13.5234C2.61312 14.5232 2.57803 15.2813 2.50772 15.7968C2.47649 15.9843 2.39436 16.1835 2.26157 16.3945C1.90219 16.5428 1.42175 16.664 0.820201 16.7577C0.640629 16.781 0.374945 16.828 0.0234366 16.8985L0 18C1.86709 17.9374 2.92954 17.8945 3.18767 17.871C4.85939 17.7693 6.02359 17.7265 6.67977 17.7421L8.98822 17.7887C9.89478 17.8199 10.6681 17.7769 11.3087 17.6599C12.3242 17.4724 13.117 17.2378 13.6875 16.9566C14.2655 16.6754 14.8123 16.2535 15.3279 15.6911C15.7189 15.2615 15.9959 14.8044 16.1599 14.3199C16.3865 13.656 16.4997 13.0272 16.4997 12.4333C16.4999 11.4179 16.1406 10.4959 15.4217 9.66776ZM6.24617 1.35965C6.85553 1.25811 7.36334 1.20734 7.76956 1.20734C9.1054 1.20734 10.1017 1.50036 10.7578 2.08623C11.4215 2.67202 11.7537 3.40258 11.7537 4.2775C11.7537 5.51976 11.4062 6.39472 10.7109 6.90248C10.0157 7.41021 8.98436 7.66419 7.61724 7.66419C7.10163 7.66419 6.67587 7.6369 6.34 7.58223C6.33208 7.31654 6.32818 7.01581 6.32818 6.67981L6.34 5.53142C6.34772 4.305 6.32428 3.21521 6.26965 2.26194C6.25397 2.00418 6.24617 1.70361 6.24617 1.35965ZM12.1055 14.8943C11.8165 15.4567 11.3398 15.8982 10.6759 16.2187C10.0118 16.539 9.16796 16.699 8.14467 16.699C7.64466 16.699 7.09777 16.5743 6.50406 16.3243C6.41031 16.0978 6.3634 15.9256 6.36323 15.8085L6.32818 12.6444L6.34 10.6171V8.92961C6.55097 8.8515 6.94554 8.81251 7.52362 8.81251C8.82831 8.81251 9.79303 8.93753 10.4181 9.18745C11.0664 9.43766 11.6173 9.92979 12.0704 10.6642C12.3907 11.1799 12.5508 11.883 12.5508 12.7736C12.5507 13.6406 12.4022 14.3475 12.1055 14.8943Z" />
</svg>
