<svg width="18" height="18" viewBox="0 0 18 18" fill="none" xmlns="http://www.w3.org/2000/svg">
<path d="M16.7932 4.48233C15.9884 3.10352 14.8967 2.01182 13.5178 1.20704C12.1387 0.40229 10.6333 0 9.00025 0C7.3674 0 5.86147 0.40229 4.48262 1.20704C3.10368 2.0117 2.01199 3.10339 1.20716 4.48233C0.40229 5.86135 0 7.36728 0 9C0 10.6328 0.402413 12.1385 1.20704 13.5176C2.01182 14.8964 3.10352 15.9881 4.48245 16.793C5.86147 17.5977 7.36728 18 9.00008 18C10.6329 18 12.1389 17.5977 13.5178 16.793C14.8966 15.9884 15.9883 14.8964 16.793 13.5176C17.5977 12.1386 17.9999 10.6327 17.9999 9C18 7.36711 17.5977 5.86114 16.7932 4.48233ZM14.5196 12.1992C13.9493 13.1757 13.176 13.9493 12.1994 14.5196C11.2229 15.0899 10.1565 15.3748 9.00012 15.3748C7.84398 15.3748 6.77753 15.0899 5.80089 14.5196C4.82436 13.9493 4.05098 13.1757 3.48069 12.1992C2.91027 11.2226 2.62517 10.1562 2.62517 9C2.62517 7.8437 2.9104 6.77729 3.48069 5.80076C4.05086 4.82424 4.82445 4.05069 5.80089 3.48044C6.77741 2.91011 7.84382 2.62505 9.00012 2.62505C10.1565 2.62505 11.2229 2.91011 12.1994 3.48044C13.176 4.05073 13.9494 4.82424 14.5196 5.80076C15.09 6.77729 15.375 7.8437 15.375 9C15.375 10.1562 15.09 11.2226 14.5196 12.1992Z" />
<path d="M10.1252 4.49991H9.37516C9.26561 4.49991 9.17596 4.53517 9.10549 4.6054C9.03546 4.67571 9.0002 4.76548 9.0002 4.87486V8.99997H6.3752C6.26573 8.99997 6.176 9.03506 6.10565 9.10521C6.03538 9.17548 6.00024 9.26533 6.00024 9.37492V10.1249C6.00024 10.2343 6.03538 10.3242 6.10565 10.3944C6.17604 10.4647 6.26593 10.4997 6.3752 10.4997H10.1254C10.2347 10.4997 10.3246 10.4647 10.3947 10.3944C10.465 10.3242 10.5003 10.2343 10.5003 10.1249V4.87486C10.5003 4.76556 10.465 4.67583 10.3947 4.6054C10.3245 4.53517 10.2347 4.49991 10.1252 4.49991Z" />
</svg>
