<svg width="18" height="16" viewBox="0 0 18 16" fill="none" xmlns="http://www.w3.org/2000/svg">
<path d="M3.12074 11.4938L4.5156 10.099C3.73248 9.62584 3.021 9.02971 2.41502 8.32509C3.33334 7.25719 4.49326 6.43673 5.77992 5.92048C5.58236 6.36103 5.46991 6.8482 5.46991 7.36234C5.46991 7.88454 5.5862 8.37861 5.78973 8.82463L6.91618 7.69834C6.7369 7.52234 6.62521 7.27799 6.62521 7.00687C6.62521 6.47137 7.05943 6.03718 7.5949 6.03718C7.86583 6.03718 8.11036 6.14887 8.28618 6.32815L9.3098 5.30453L10.4625 4.15209L11.0403 3.57402C10.3731 3.44231 9.69067 3.37048 8.99998 3.37048C5.61256 3.37048 2.40115 5.01145 0.409336 7.76017L0 8.32509L0.409368 8.89007C1.15879 9.9243 2.08132 10.8016 3.12074 11.4938Z" fill="#9C9C9C"/>
<path d="M14.4482 4.88647L13.0369 6.29772C13.9978 6.80337 14.8654 7.48848 15.585 8.32512C13.9436 10.2337 11.5317 11.3542 8.99998 11.3542C8.67591 11.3542 8.35395 11.3353 8.03529 11.2993L6.38741 12.9472C7.23386 13.1639 8.11039 13.2798 8.99998 13.2798C12.3874 13.2798 15.599 11.6388 17.5906 8.88991L18 8.32493L17.5906 7.75998C16.7391 6.58539 15.6638 5.61491 14.4482 4.88647Z" fill="#9C9C9C"/>
<path d="M9.00002 10.8925C10.9496 10.8925 12.5301 9.31199 12.5301 7.36237C12.5301 7.18656 12.513 7.01518 12.4881 6.84631L8.48396 10.8507C8.65285 10.8756 8.8242 10.8925 9.00002 10.8925Z" fill="#9C9C9C"/>
<path d="M7.82852 10.6893L12.327 6.19086L12.4841 6.03373L13.925 4.59284L16.6549 1.86278C17.081 1.43667 17.081 0.745772 16.6549 0.319635C16.4418 0.10666 16.1625 0 15.8833 0C15.6041 0 15.3247 0.106471 15.1117 0.319635L11.7033 3.72823L10.9869 4.44471L10.0666 5.36495L8.55198 6.87959L7.46788 7.96368L6.08265 9.34891L5.04075 10.3908L3.62314 11.8084L1.41418 14.0172C0.98807 14.4433 0.98807 15.1342 1.41418 15.5603C1.62715 15.7733 1.90654 15.88 2.18575 15.88C2.46495 15.88 2.74435 15.7735 2.95732 15.5603L5.75437 12.7633L7.33023 11.1874L7.82852 10.6893Z" fill="#9C9C9C"/>
</svg>
