<svg width="12" height="18" viewBox="0 0 12 18" fill="none" xmlns="http://www.w3.org/2000/svg">
<path d="M11.5781 0.0293472C11.3048 0.0489667 11.039 0.0666571 10.7811 0.0821721C9.62485 0.152318 8.7888 0.187576 8.27332 0.187576C8.00768 0.187576 7.72241 0.179654 7.41786 0.164139L3.7032 0L3.48049 1.20705C3.55856 1.22257 3.70706 1.23833 3.92583 1.25397C4.73039 1.30068 5.29296 1.41018 5.61327 1.58204V2.02738L5.51953 2.61317L5.26176 4.19521L5.07419 4.93353L4.73434 6.77333C4.73434 6.78125 4.72063 6.8262 4.69329 6.90824C4.66595 6.99021 4.63074 7.10932 4.58789 7.26554C4.54483 7.42188 4.49611 7.60355 4.44132 7.81054C4.38652 8.01749 4.32409 8.27931 4.25374 8.59573C4.18343 8.91206 4.11698 9.24223 4.05455 9.5859L3.91385 10.336L3.2577 13.4766L2.94124 15.1051C2.84746 15.6054 2.68742 16 2.46085 16.2888C2.14834 16.4452 1.6952 16.5974 1.10144 16.746C0.531164 16.8943 0.230427 16.9725 0.199192 16.9803L0 17.9766C0.18737 17.961 0.570156 17.9259 1.14836 17.871C2.18741 17.7773 2.86708 17.7343 3.18731 17.7422L5.50766 17.7655C6.49188 17.8672 7.05822 17.9335 7.20656 17.9649C7.35502 17.9882 7.46444 18 7.53467 18C7.67542 18 7.83935 17.9922 8.02684 17.9766C8.06588 17.9688 8.15581 17.9649 8.29638 17.9649C8.31198 17.8868 8.34708 17.7265 8.40183 17.4842C8.4485 17.2577 8.47587 17.0311 8.48388 16.8044C8.24931 16.7655 7.99171 16.7263 7.71018 16.6875C7.28081 16.6406 6.81573 16.5585 6.31568 16.4414C6.29253 16.2853 6.28855 16.1798 6.30414 16.125L6.44493 15.5977L6.94888 12.8439L7.39418 10.9923L8.1091 7.34784C8.28079 6.51187 8.53867 5.31676 8.88267 3.7619C8.91399 3.46506 8.96456 3.1447 9.03507 2.80091C9.12874 2.35565 9.22269 2.01199 9.31627 1.76966C9.60535 1.65255 10 1.53151 10.4998 1.40649C10.922 1.31287 11.3476 1.19174 11.7772 1.04332C11.8242 0.871427 11.8753 0.672235 11.9297 0.445667C11.9612 0.297125 11.9845 0.148788 12 0.00041045C11.9922 0.000123135 11.8515 0.0098508 11.5781 0.0293472Z"/>
</svg>
