<svg width="18" height="18" viewBox="0 0 18 18" fill="none" xmlns="http://www.w3.org/2000/svg">
<path d="M16.6011 8.15556L13.2221 11.5335C11.3571 13.3995 8.3317 13.3995 6.46644 11.5335C6.17263 11.2405 5.94278 10.9104 5.74093 10.5699L7.31097 9.00001C7.3856 8.92475 7.47776 8.88162 7.56583 8.83081C7.67437 9.20166 7.86385 9.55274 8.15549 9.84442C9.08686 10.7765 10.6024 10.7752 11.5332 9.84442L14.9112 6.46659C15.8432 5.53459 15.8432 4.01942 14.9112 3.08813C13.9803 2.15684 12.4652 2.15684 11.5332 3.08813L10.332 4.29062C9.35724 3.91107 8.30705 3.80902 7.2847 3.95884L9.84435 1.39927C11.7104 -0.466423 14.735 -0.466423 16.6011 1.39927C18.4662 3.26489 18.4662 6.28999 16.6011 8.15556ZM7.66846 13.71L6.4664 14.9125C5.53511 15.8433 4.01951 15.8433 3.08806 14.9125C2.15669 13.9804 2.15669 12.4652 3.08806 11.5335L6.4664 8.15556C7.39844 7.22364 8.91302 7.22364 9.84431 8.15556C10.1353 8.44662 10.325 8.79761 10.4345 9.16799C10.5231 9.11651 10.6141 9.07468 10.6887 8.99997L12.2586 7.43069C12.0581 7.08891 11.8271 6.75996 11.5331 6.46667C9.66834 4.60097 6.64265 4.60097 4.77695 6.46667L1.39912 9.84462C-0.466374 11.7109 -0.466374 14.7351 1.39912 16.6012C3.26482 18.4663 6.2898 18.4663 8.15545 16.6012L10.7158 14.0411C9.69288 14.1917 8.64241 14.0888 7.66846 13.71Z" />
</svg>
