<svg width="18" height="18" viewBox="0 0 18 18" fill="none" xmlns="http://www.w3.org/2000/svg">
<path fill-rule="evenodd" clip-rule="evenodd" d="M2.56783 17.5594L6.47815 13.649C6.49893 13.6282 6.51346 13.6039 6.5328 13.5821C7.69997 14.3516 9.09711 14.8007 10.5996 14.8007C14.6867 14.8007 18 11.4874 18 7.40033C18 3.31325 14.6867 0 10.5997 0C6.51267 0 3.19935 3.31318 3.19935 7.40026C3.19935 8.90281 3.64842 10.2999 4.41786 11.4671C4.39622 11.4864 4.37184 11.5009 4.35106 11.5216L0.440591 15.4321C-0.146769 16.0195 -0.146769 16.9719 0.440591 17.5594C1.02802 18.1468 1.9804 18.1468 2.56783 17.5594ZM5.76481 7.40033C5.76481 4.73002 7.92944 2.56539 10.5997 2.56539C13.27 2.56539 15.4346 4.73009 15.4346 7.40033C15.4346 10.0705 13.2699 12.2352 10.5997 12.2352C7.92944 12.2352 5.76481 10.0705 5.76481 7.40033Z" fill="#7B7B7B"/>
</svg>
