<svg width="20" height="20" viewBox="0 0 20 20" fill="none" xmlns="http://www.w3.org/2000/svg">
<g clip-path="url(#clip0)">
<path d="M15.5382 1.67328C13.4362 0.276157 10.9128 -0.272036 8.42426 0.127019C8.38094 0.127839 8.33762 0.132019 8.2943 0.139519C5.66333 0.596033 3.36728 2.04983 1.82853 4.23256C0.291446 6.41615 -0.304245 9.06708 0.151488 11.6989C0.227307 12.133 0.333086 12.5703 0.466404 12.9952C1.0171 14.7839 0.881278 16.7009 0.0848485 18.3929C-0.0542894 18.6861 -0.00847001 19.0344 0.200667 19.2835C0.409764 19.5326 0.741359 19.6359 1.05792 19.5509L4.79273 18.5312C6.37398 19.4993 8.1593 20 9.98215 20C10.6445 20 11.3118 19.9342 11.9758 19.8C14.5943 19.2727 16.8503 17.7581 18.3282 15.5345C21.3799 10.9441 20.1286 4.72662 15.5382 1.67328ZM16.9411 14.6123C15.709 16.466 13.8286 17.7281 11.6476 18.1672C9.46814 18.6062 7.24541 18.1697 5.39092 16.9367C5.25264 16.8451 5.09182 16.7976 4.92936 16.7976C4.85604 16.7976 4.78191 16.8076 4.70941 16.8276L2.16676 17.5215C2.59582 15.8836 2.56414 14.1491 2.05762 12.5004C1.94516 12.1413 1.85602 11.7756 1.79353 11.414C1.41361 9.22126 1.91016 7.01184 3.19147 5.19231C4.45113 3.40363 6.32144 2.20311 8.4684 1.80238C8.50839 1.8007 8.54753 1.79656 8.58753 1.78988C10.6945 1.42582 12.8355 1.8782 14.6168 3.06204C18.4424 5.60554 19.4846 10.7867 16.9411 14.6123Z" fill="#FF0101"/>
<path d="M10.0033 4.91821C9.54258 4.91821 9.17017 5.29063 9.17017 5.75132V10.75C9.17017 11.2107 9.54258 11.5831 10.0033 11.5831C10.464 11.5831 10.8364 11.2098 10.8364 10.75V5.75132C10.8364 5.29063 10.464 4.91821 10.0033 4.91821Z" fill="#FF0101"/>
<path d="M10.7689 13.8482C10.7272 13.7399 10.6689 13.6483 10.5939 13.5733C10.5523 13.54 10.5106 13.4983 10.4607 13.4734C10.419 13.4401 10.369 13.4159 10.319 13.3984C10.269 13.3726 10.2191 13.3567 10.1607 13.3484C9.89496 13.2901 9.60254 13.3825 9.41176 13.5733C9.33677 13.6483 9.27848 13.74 9.23681 13.8482C9.19517 13.9482 9.17017 14.0565 9.17017 14.1648C9.17017 14.2732 9.19517 14.3814 9.23681 14.4814C9.27845 14.5814 9.33677 14.673 9.41176 14.7564C9.49508 14.8313 9.58672 14.8896 9.68668 14.9313C9.78664 14.973 9.89496 14.998 10.0033 14.998C10.1116 14.998 10.2191 14.973 10.319 14.9313C10.419 14.8897 10.5098 14.8314 10.5939 14.7564C10.6689 14.673 10.7272 14.5814 10.7689 14.4814C10.8105 14.3815 10.8355 14.2732 10.8355 14.1648C10.8355 14.0565 10.8105 13.9482 10.7689 13.8482Z" fill="#FF0101"/>
</g>
<defs>
<clipPath id="clip0">
<rect width="20" height="20" fill="white"/>
</clipPath>
</defs>
</svg>
