<svg width="21" height="18" viewBox="0 0 21 18" fill="none" xmlns="http://www.w3.org/2000/svg">
<path d="M16.1252 10.4998H15.3751C15.2656 10.4998 15.1757 10.5349 15.1057 10.6054C15.0352 10.6756 15.0001 10.7654 15.0001 10.8748V14.6248C15.0001 15.1405 14.8166 15.5818 14.4495 15.9491C14.0823 16.3162 13.6408 16.4996 13.1252 16.4996H3.37496C2.85934 16.4996 2.41789 16.3162 2.05066 15.9491C1.6835 15.5819 1.49994 15.1405 1.49994 14.6248V4.87474C1.49994 4.35912 1.68346 3.91783 2.05066 3.55064C2.41789 3.1834 2.85934 2.99988 3.37496 2.99988H11.625C11.7345 2.99988 11.8244 2.96462 11.8946 2.89439C11.9649 2.82408 11.9999 2.73431 11.9999 2.62484V1.87473C11.9999 1.76547 11.9649 1.67553 11.8946 1.60534C11.8244 1.53503 11.7345 1.49994 11.625 1.49994H3.37496C2.44535 1.49994 1.65038 1.83003 0.99011 2.49017C0.330091 3.15027 0 3.94525 0 4.87486V14.625C0 15.5546 0.330091 16.3497 0.990151 17.0096C1.65042 17.6697 2.44539 18 3.375 18H13.1252C14.0547 18 14.8498 17.6697 15.51 17.0096C16.1702 16.3497 16.5003 15.5546 16.5003 14.625V10.8751C16.5003 10.7656 16.4652 10.6757 16.3947 10.6054C16.3243 10.5349 16.2345 10.4998 16.1252 10.4998Z" />
<path d="M20.7774 0.222633C20.6289 0.07417 20.4529 0 20.2499 0H14.2499C14.0468 0 13.8709 0.07417 13.7226 0.222633C13.5741 0.371014 13.4998 0.546814 13.4998 0.74995C13.4998 0.953087 13.5741 1.12893 13.7226 1.27739L15.785 3.33987L8.14445 10.9806C8.06622 11.0587 8.02722 11.1486 8.02722 11.25C8.02722 11.3517 8.06634 11.4416 8.14445 11.5197L9.48041 12.8555C9.55852 12.9336 9.64841 12.9726 9.74996 12.9726C9.85151 12.9726 9.94144 12.9337 10.0195 12.8555L17.6601 5.21489L19.7227 7.27736C19.8711 7.42583 20.0469 7.50008 20.25 7.50008C20.4532 7.50008 20.629 7.42583 20.7775 7.27736C20.926 7.12894 21.0002 6.95318 21.0002 6.75005V0.74995C21.0001 0.546691 20.9257 0.371014 20.7774 0.222633Z" />
</svg>
