<svg width="21" height="18" viewBox="0 0 21 18" fill="none" xmlns="http://www.w3.org/2000/svg">
<path d="M5.65998 8.24974H14.3664C14.0773 8.06246 13.7062 7.85921 13.2531 7.64044C12.441 7.28114 11.7648 7.02326 11.2257 6.86709C9.5619 6.38286 8.4721 5.87884 7.95647 5.35549C7.44083 4.83206 7.18308 4.28527 7.18308 3.71492C7.18308 3.02731 7.4449 2.45697 7.96825 2.00393C8.49948 1.54313 9.2104 1.3125 10.101 1.3125C11.0541 1.3125 11.8743 1.66794 12.5619 2.37886C12.9758 2.81623 13.3784 3.61699 13.7688 4.78112L13.9332 4.80443L14.9175 4.8747L15.0583 4.83965C15.0973 4.6286 15.1169 4.45306 15.1169 4.31223C15.1169 3.84347 15.0622 3.12882 14.9526 2.16786C14.8664 1.54309 14.7846 1.08196 14.7065 0.785046C13.8396 0.503937 13.148 0.316366 12.6324 0.222704C11.7184 0.0742483 11.0659 0 10.6757 0C8.64428 0 7.10932 0.496261 6.07017 1.48825C5.02335 2.48816 4.5 3.69534 4.5 5.10935C4.5 5.82015 4.68749 6.55442 5.06255 7.31225C5.24199 7.66392 5.44122 7.97643 5.65998 8.24974Z" />
<path d="M11.6011 11.2497C12.4058 11.5778 12.9411 11.8553 13.2065 12.0816C13.8394 12.652 14.1558 13.2652 14.1558 13.9213C14.1558 14.4527 13.972 14.9565 13.6049 15.4331C13.2535 15.9017 12.777 16.2381 12.1753 16.4408C11.5897 16.6521 11.0466 16.7573 10.5468 16.7573C9.9766 16.7573 9.461 16.6712 9.00008 16.4995C8.51576 16.3353 8.10557 16.1129 7.76959 15.8315C7.41809 15.5424 7.10549 15.1753 6.8321 14.7299C6.79299 14.6676 6.7441 14.562 6.68553 14.4137C6.62705 14.2651 6.53897 14.0465 6.42191 13.7576C6.30469 13.4684 6.18763 13.1911 6.07041 12.9256L4.87517 12.949V13.4646L4.85173 13.8985C4.84402 14.1951 4.84402 14.4607 4.85173 14.6951C4.86725 15.07 4.87517 15.6794 4.87517 16.5234V16.6757C4.87517 16.7852 4.90636 16.8709 4.96879 16.9336C5.08597 17.027 5.3672 17.1366 5.81253 17.2616L7.45301 17.7303C8.08571 17.9101 8.84748 18 9.73805 18C10.6991 18 11.4916 17.9179 12.1169 17.7538C12.6873 17.6129 13.2843 17.3551 13.9098 16.9804C14.4722 16.6208 14.8981 16.3046 15.1872 16.0309C15.5618 15.6483 15.8395 15.242 16.0191 14.8121C16.3397 14.0232 16.4996 13.195 16.4996 12.3281C16.4996 11.9139 16.4725 11.5547 16.418 11.2499H11.6011V11.2497Z" />
<path d="M20.8938 9.10514C20.8233 9.03491 20.7337 8.99982 20.6241 8.99982H0.374936C0.265513 8.99982 0.17575 9.03491 0.105401 9.10514C0.0352567 9.17536 0 9.26525 0 9.37484V10.1246C0 10.2342 0.0350925 10.3239 0.105401 10.3943C0.17575 10.4645 0.265677 10.4994 0.374936 10.4994H20.6241C20.7337 10.4994 20.8233 10.4645 20.8938 10.3943C20.964 10.3239 20.9991 10.2342 20.9991 10.1246V9.37484C20.9991 9.26525 20.964 9.17536 20.8938 9.10514Z" />
</svg>
