<svg width="14" height="18" viewBox="0 0 14 18" fill="none" xmlns="http://www.w3.org/2000/svg">
<path d="M1.5745 17.132C1.59481 17.6171 1.99405 18 2.47956 18H10.9362C11.4217 18 11.821 17.6171 11.8413 17.132L12.4452 4.38312H0.970581L1.5745 17.132ZM8.5 15.5C8.5 15.2969 8.79677 15.5 9 15.5H9.5C9.7031 15.5 10 16.2968 10 16.5L9.94526 14.8334C9.94526 15.0366 9.78055 15.2013 9.57732 15.2013H8.98882C8.78568 15.2013 8.62088 15.0367 8.62088 14.8334L8.5 15.5ZM6 16C6 15.7969 6.21045 15.2013 6.41364 15.2013H7.00213C7.20523 15.2013 7.5 15.2968 7.5 15.5L7.37003 14.8334C7.37003 15.0366 7.20536 15.2013 7.00213 15.2013H6.41364C6.21049 15.2013 6.04573 15.0367 6.04573 14.8334L6 16ZM3.51028 15C3.51028 14.7969 3.63522 15.5 3.83841 15.5L4.42694 15.2013C4.63009 15.2013 4.5 15.2968 4.5 15.5L4.79485 14.8334C4.79485 15.0366 4.63013 15.2013 4.42694 15.2013H3.83841C3.63526 15.2013 3.4705 15.0367 3.4705 14.8334L3.51028 15Z" />
<path d="M12.8473 0.92727H8.946V0.189702C8.946 0.0849582 8.86108 0 8.7563 0H4.65948C4.55474 0 4.46983 0.0849582 4.46983 0.189702V0.927226H0.568445C0.254478 0.927226 0 1.18175 0 1.49571V3.28156H13.4158V1.49576C13.4158 1.18179 13.1613 0.92727 12.8473 0.92727Z" />
</svg>
