<svg width="18" height="18" viewBox="0 0 18 18" fill="none" xmlns="http://www.w3.org/2000/svg">
<path d="M0.562482 1.11359C1.51567 1.13707 2.08985 1.28951 2.28502 1.5701C2.41776 1.76564 2.48425 2.5975 2.48425 4.06617V7.96858C2.48425 9.19525 2.54664 10.1209 2.67163 10.7459C2.84369 11.6755 3.16786 12.4374 3.64439 13.031C4.11297 13.617 4.81233 14.0938 5.74192 14.4608C6.656 14.8201 7.76536 14.9997 9.06994 14.9997C10.2105 14.9997 11.2067 14.8711 12.0584 14.6132C12.8942 14.3632 13.6052 14.0154 14.1909 13.5701C14.7694 13.1171 15.2068 12.6366 15.5034 12.1287C15.7065 11.7694 15.8669 11.2927 15.9841 10.6993C16.1482 9.84787 16.2069 8.65994 16.1599 7.13663C16.0507 4.1912 15.9647 2.64441 15.9021 2.49595C15.9021 2.41013 15.8961 2.289 15.8847 2.13279C15.8728 1.97644 15.8669 1.87116 15.8669 1.81641C15.8669 1.61328 15.9257 1.453 16.0428 1.33594C16.09 1.2891 16.3983 1.22257 16.9686 1.13662C17.2734 1.12882 17.6017 1.07789 17.9531 0.984303C17.9846 0.79685 17.9999 0.675767 17.9999 0.620971C17.9999 0.519426 17.9767 0.320152 17.9298 0.0234368L17.7188 0C16.7812 0.101587 16.0157 0.140538 15.4218 0.117143L13.0196 0H12.0353L12.0117 1.0079L12.1759 1.04296L13.3478 1.01956C13.6835 1.01176 13.9844 1.14462 14.25 1.41811C14.3982 1.58217 14.4922 1.9258 14.5312 2.44924L14.5778 3.14081C14.625 3.81264 14.6776 4.43558 14.7363 5.00972C14.795 5.58394 14.838 6.06248 14.8652 6.44519C14.8925 6.8281 14.9062 7.32807 14.9062 7.94526C14.9062 9.16406 14.8242 10.0583 14.6601 10.6285C14.5275 11.0817 14.3202 11.5272 14.0393 11.9646C13.9061 12.1835 13.6523 12.4334 13.2771 12.7148C12.9414 12.9724 12.5549 13.1716 12.1172 13.3122C11.4374 13.5311 10.6914 13.6404 9.87906 13.6404C9.18351 13.6404 8.49244 13.4569 7.80485 13.0894C7.32831 12.8318 6.95337 12.4725 6.67993 12.0115C6.32846 11.4023 6.12918 10.6129 6.08227 9.64416L5.91821 6.3631L5.90627 3.67982C5.90627 3.63311 5.90426 3.53345 5.90036 3.38113C5.89642 3.22881 5.89444 3.10211 5.89444 3.0004C5.89444 2.07856 5.94522 1.56304 6.04672 1.45361C6.19535 1.25824 6.50384 1.16059 6.97258 1.16059C7.47271 1.16059 7.957 1.1255 8.42574 1.05519V0.949702L8.40234 0.199767L8.41396 0.0356271C8.17967 0.0512243 7.8438 0.0591049 7.40626 0.0591049C7.17197 0.0669035 6.60157 0.086441 5.69534 0.117676C5.05454 0.141154 4.39835 0.152729 3.72653 0.152729C3.46084 0.152729 2.81245 0.125557 1.78119 0.0707617C1.37497 0.0395675 0.937429 0.0240114 0.468694 0.0240114C0.257722 0.0240114 0.101463 0.0277875 0 0.0356682L0.0351756 1.06697C0.0976052 1.0824 0.273401 1.09808 0.562482 1.11359Z" />
<path d="M17.6247 16.5002H0.375069C0.265725 16.5002 0.175836 16.5353 0.105526 16.6057C0.0351335 16.6761 0.00012207 16.7658 0.00012207 16.8752V17.6251C0.00012207 17.7346 0.0352977 17.8245 0.105526 17.8947C0.175836 17.9651 0.265561 18 0.375069 18H17.6247C17.7342 18 17.8241 17.965 17.8944 17.8947C17.9646 17.8245 17.9995 17.7346 17.9995 17.6251V16.8752C17.9995 16.7658 17.9645 16.676 17.8944 16.6057C17.8242 16.5353 17.7342 16.5002 17.6247 16.5002Z" />
</svg>
