<svg width="31" height="34" viewBox="0 0 31 34" fill="none" xmlns="http://www.w3.org/2000/svg">
<path d="M21.2862 17.814C21.2696 17.2765 21.3828 16.7293 21.6107 16.2363L25.1756 8.63145L23.8735 5.05387L18.0701 7.16611C17.6136 7.33226 17.1366 7.08755 16.9705 6.63105L14.8662 0.84974L2.47771 5.35879C1.11144 5.85607 0.404532 7.37205 0.901811 8.73831L9.35879 31.9737C9.85607 33.3399 11.372 34.0469 12.7383 33.5496L29.2295 27.5473C30.5958 27.05 31.3247 25.526 30.8274 24.1597L28.5839 17.9957L27.9986 19.2116C27.7636 19.71 27.4295 20.1321 27.0029 20.471L24.6959 22.3035L24.3038 22.471C23.6424 22.7117 22.8994 22.6177 22.3146 22.2204C21.7338 21.8244 21.376 21.1673 21.357 20.4627L21.2862 17.814ZM9.54037 19.6238L17.7726 16.6275C18.2291 16.4614 18.7329 16.6963 18.8991 17.1528C19.0652 17.6093 18.8303 18.1132 18.3738 18.2793L10.1416 21.2756C9.68508 21.4418 9.18123 21.2068 9.01508 20.7503C8.84892 20.2938 9.08387 19.79 9.54037 19.6238ZM7.81266 17.4467C7.64651 16.9902 7.88146 16.4864 8.33796 16.3202L16.5702 13.3239C17.0267 13.1578 17.5305 13.3927 17.6967 13.8492C17.8628 14.3057 17.6279 14.8096 17.1714 14.9757L8.93917 17.972C8.48266 18.1382 7.97881 17.9032 7.81266 17.4467ZM10.2175 24.0539C10.0513 23.5974 10.2863 23.0936 10.7428 22.9274L18.975 19.9311C19.4315 19.765 19.9353 19.9999 20.1015 20.4564C20.2677 20.913 20.0327 21.4168 19.5762 21.583L11.344 24.5792C10.8875 24.7454 10.3836 24.5104 10.2175 24.0539ZM24.0822 23.6841C24.5387 23.518 25.0426 23.7529 25.2087 24.2094C25.3749 24.6659 25.14 25.1698 24.6834 25.3359L19.728 27.1396C19.2715 27.3057 18.7677 27.0708 18.6015 26.6143C18.4354 26.1578 18.6703 25.6539 19.1268 25.4878L24.0822 23.6841ZM7.73675 14.6684C7.28025 14.8346 6.7764 14.5996 6.61025 14.1431C6.44409 13.6866 6.67904 13.1828 7.13554 13.0166L18.6714 8.81791C19.1279 8.65176 19.6317 8.88671 19.7979 9.34321C19.964 9.79971 19.7291 10.3036 19.2726 10.4697L7.73675 14.6684Z" fill="white"/>
</svg>
